# xmcd CD database file
#
# Track frame offsets:
#	150
#	36632
#	63013
#	91145
#	121119
#	142359
#	176308
#	204515
#
# Disc length: 3116 seconds
#
# Revision: 0
# Processed by: cddbd v1.5.2PL0 Copyright (c) Steve Scherf et al.
# Submitted via: CDex 1.91
#
DISCID=6c0c2a08
DTITLE=Robin Verheyen - When the birds leave
DYEAR=2018
DGENRE=Jazz
TTITLE0=Rest mode
TTITLE1=Jabali's way
TTITLE2=When the birds leave
TTITLE3=Melody for Paul #1
TTITLE4=Operator
TTITLE5=Stykkisholmur
TTITLE6=Traveling dreams
TTITLE7=Vesper
EXTD=YEAR: 2018
EXTT0=
EXTT1=
EXTT2=
EXTT3=
EXTT4=
EXTT5=
EXTT6=
EXTT7=
PLAYORDER=
